<svg version="1.0" xmlns="http://www.w3.org/2000/svg" width="15" height="60" viewBox="0 0 1218 1280"><path d="M911.9.4c-.3.3-5.6 1.9-11.9 3.6-62.5 17-118.1 60.1-150.2 116.5-31.1 54.8-39.9 116.7-25.4 180.4l2.3 10.3-6 8.2c-78.2 106-323.7 352.9-452.2 454.7-6.6 5.3-13.1 10.3-14.5 11.1-1.8 1.1-6.5 1.7-17 2.2-60.8 2.5-120 28.7-163.9 72.6C34.6 898.5 9.4 950.3 3 1004c-.6 5.2-1.5 12.2-2.1 15.6-1.4 9.2-1.1 18.9 1.1 37.2 3.8 31 10.1 55.2 20.6 78.7 9.5 21.1 21 40.1 25.7 42.3 3.5 1.7 7.4.5 9.9-2.9.9-1.3 14.8-38.4 30.9-82.4 16-44 30.5-82.7 32.2-86 4.5-8.6 18.2-22.1 27.4-26.8 14.4-7.5 32.3-9.7 46.9-5.9 9.6 2.6 119.3 42.7 127.9 46.8 17.8 8.4 31.4 25.3 35.9 44.4 2.2 9 2 23-.2 31.6-1.1 3.8-15.3 43.6-31.6 88.4-16.4 44.8-30 83-30.3 84.8-.5 2.8 0 3.7 3.2 6.8 2.2 2.1 4.5 3.4 5.4 3.1.9-.3 7-2.1 13.6-4 58.2-17 107-52.6 140-102.2 21-31.7 33.1-63.8 39.7-106 1.7-10.9 1.6-51.5-.1-63-3-20.8-9.6-45.8-16-61.4-1.7-4.1-3.1-8.1-3.1-8.9 0-1.8 2.7-5.2 22.3-27.5 79.9-91.1 197.6-211.1 285.7-291.3 59.5-54.1 110.4-95.1 146.8-118.3l5.2-3.3 26.3-.2c29.7-.2 38.8-1.3 63.2-7.6 29-7.4 52.3-17.8 77.5-34.6 59.4-39.5 99.6-104.9 108-175.4.6-5.2 1.5-12.2 2.1-15.6 1.4-9.2 1.1-18.9-1.1-37.2-3.8-31-10.1-55.2-20.6-78.7-9.5-21.1-21-40.1-25.7-42.3-3.5-1.7-7.4-.5-9.8 2.9-1 1.3-14.7 37.7-30.4 80.9s-30.2 81.9-32.2 86c-4.8 10-17.6 23-28 28.3-14.4 7.5-32.3 9.7-46.9 5.9-9.6-2.6-119.3-42.7-127.9-46.8-17.8-8.4-31.4-25.3-35.9-44.4-2.2-9-2-23 .3-31.6 1-3.8 15.2-43.6 31.6-88.4 16.3-44.8 29.9-83 30.2-84.8.5-2.8 0-3.7-3.1-6.7-3.6-3.4-4.8-4-5.7-3.1z" fill="#fff"/></svg>